<svg width="81" height="60" viewBox="0 0 81 60" fill="none" xmlns="http://www.w3.org/2000/svg">
<path d="M0 25.5V34.5C0 34.9375 0.140625 35.2969 0.421875 35.5781C0.703125 35.8594 1.0625 36 1.5 36H60V46.5C60 47.1563 60.2969 47.6094 60.8906 47.8594C61.4844 48.1094 62.0312 48.0313 62.5312 47.625L80.5312 31.2188C80.8437 30.9063 81 30.5469 81 30.1406C81 29.7031 80.8437 29.3281 80.5312 29.0156L62.5312 12.4219C62.0312 11.9844 61.4844 11.8906 60.8906 12.1406C60.2969 12.4219 60 12.875 60 13.5V24H1.5C1.0625 24 0.703125 24.1406 0.421875 24.4219C0.140625 24.7031 0 25.0625 0 25.5Z" fill="black"/>
</svg>
