<svg width="32" height="32" viewBox="0 0 32 32" fill="none" xmlns="http://www.w3.org/2000/svg">
<g clip-path="url(#clip0_21_6)">
<path d="M19.5149 11.9519C18.8369 11.9519 18.3349 12.1229 17.9419 12.3389C17.8789 12.1149 17.6719 11.9509 17.4279 11.9999H14.4439C14.1489 11.9509 13.9099 12.1899 14.0009 12.4999V23.4999C13.9099 23.7799 14.1489 24.0199 14.4439 23.9999H17.4279C17.7229 24.0199 17.9619 23.7799 17.9619 23.4849L17.9609 16.8369C17.9599 16.8339 17.9489 16.5159 18.1499 16.2969C18.3109 16.1229 18.5879 16.0339 18.9709 16.0339C19.6089 16.0339 19.8929 16.2949 19.9989 16.8789V23.4849C19.8939 23.7799 20.1329 24.0199 20.4279 23.9999H23.5729C23.8679 24.0199 24.1069 23.7799 24.0009 23.4849V16.6569C24.1059 13.1849 21.6329 11.9519 19.5149 11.9519V11.9519ZM23.0379 22.9999H20.9619V16.8789C20.9619 15.6979 20.1989 14.9659 18.9719 14.9659C18.2779 14.9659 17.7379 15.1699 17.3659 15.5719C16.8489 16.1319 16.8889 16.8419 16.9999 16.9999V22.9999H14.9779V13.0199H16.8939V13.3559C16.8932 13.456 16.9206 13.5543 16.9732 13.6395C17.0258 13.7247 17.1013 13.7933 17.1911 13.8375C17.2809 13.8817 17.3814 13.8996 17.481 13.8892C17.5805 13.8789 17.6751 13.8407 17.7539 13.7789L17.8939 13.6709C18.2989 13.3519 18.7179 13.0209 19.5159 13.0209C20.3419 13.0209 23.0389 13.2839 23.0389 16.6579V22.9999H23.0379ZM10.9999 6.96594C9.87794 6.96594 8.96594 7.87794 8.96594 8.99994C8.96594 10.1219 9.87794 11.0339 10.9999 11.0339C12.1219 11.0339 13.0339 10.1219 13.0339 8.99994C13.0339 7.87794 12.1219 6.96594 10.9999 6.96594ZM10.9999 9.96594C10.4679 9.96594 10.0339 9.53194 10.0339 8.99994C10.0339 8.46794 10.4679 8.03394 10.9999 8.03394C11.5319 8.03394 11.9659 8.46794 11.9659 8.99994C11.9659 9.53194 11.5319 9.96594 10.9999 9.96594ZM12.4279 11.9509H9.45994C9.16494 11.9509 8.92594 12.1899 8.99994 12.4999V23.4999C8.92594 23.7799 9.16494 24.0199 9.45994 23.9999H12.4279C12.7229 24.0199 12.9619 23.7799 12.9619 23.4849V12.4849C12.9619 12.3433 12.9057 12.2075 12.8055 12.1073C12.7054 12.0072 12.5696 11.9509 12.4279 11.9509ZM11.9999 22.9999H9.99394V13.0199H11.9999V22.9999Z" fill="#699BF7"/>
<path d="M15.9999 -0.0340576C7.15794 -0.0340576 -0.0340576 7.15794 -0.0340576 15.9999C-0.0340576 24.8419 7.15794 32.0339 15.9999 32.0339C24.8419 32.0339 32.0339 24.8419 32.0339 15.9999C32.0339 7.15794 24.8419 -0.0340576 15.9999 -0.0340576ZM15.9999 30.9659C7.74794 30.9659 1.03394 24.2519 1.03394 15.9999C1.03394 7.74794 7.74794 1.03394 15.9999 1.03394C24.2519 1.03394 30.9659 7.74794 30.9659 15.9999C30.9659 24.2519 24.2519 30.9659 15.9999 30.9659Z" fill="#699BF7"/>
</g>
<defs>
<clipPath id="clip0_21_6">
<rect width="32" height="32" fill="white"/>
</clipPath>
</defs>
</svg>
