<svg width="31" height="44" viewBox="0 0 31 44" fill="none" xmlns="http://www.w3.org/2000/svg">
<path d="M26 22C26 15.3726 20.6274 10 14 10C7.37258 10 2 15.3726 2 22V30C2 36.6274 7.37258 42 14 42C20.6274 42 26 36.6274 26 30V22Z" stroke="#F24E1E" stroke-width="4"/>
<path d="M2 22C2 15.373 7.373 10 14 10C20.627 10 26 15.373 26 22V23H2V22Z" stroke="#F24E1E" stroke-width="4"/>
<path d="M14 23V10C14 6 15.5 2 21 2C27 2 29 7 29 11" stroke="#F24E1E" stroke-width="4" stroke-linecap="round" stroke-linejoin="round"/>
</svg>
