<svg width="163" height="163" viewBox="0 0 163 163" fill="none" xmlns="http://www.w3.org/2000/svg">
<path d="M43.5866 163L98.0072 108.576L81.5318 92.1045L92.1045 81.5318L108.576 98.0069L163 43.5866L119.413 0L64.9931 54.4235L81.4682 70.8955L70.8955 81.4682L54.4235 64.9931L0 119.413L43.5866 163ZM43.5866 141.726L21.2753 119.415L54.4228 86.2672L60.26 92.1045L49.5895 102.775L60.2266 113.412L70.8973 102.741L76.7344 108.579L43.5866 141.726V141.726ZM108.58 76.7328L102.742 70.8955L113.413 60.2251L102.776 49.588L92.1052 60.2585L86.2665 54.4199L119.414 21.2691L141.728 43.5816L108.577 76.7294L108.58 76.7328V76.7328Z" fill="#F24E1E"/>
</svg>
