<svg width="768" height="1280" viewBox="0 0 768 1280" fill="none" xmlns="http://www.w3.org/2000/svg">
<path d="M464 1152C464 1130 456.167 1111.17 440.5 1095.5C424.833 1079.83 406 1072 384 1072C362 1072 343.167 1079.83 327.5 1095.5C311.833 1111.17 304 1130 304 1152C304 1174 311.833 1192.83 327.5 1208.5C343.167 1224.17 362 1232 384 1232C406 1232 424.833 1224.17 440.5 1208.5C456.167 1192.83 464 1174 464 1152ZM672 992V288C672 279.333 668.833 271.833 662.5 265.5C656.167 259.167 648.667 256 640 256H128C119.333 256 111.833 259.167 105.5 265.5C99.1667 271.833 96 279.333 96 288V992C96 1000.67 99.1667 1008.17 105.5 1014.5C111.833 1020.83 119.333 1024 128 1024H640C648.667 1024 656.167 1020.83 662.5 1014.5C668.833 1008.17 672 1000.67 672 992ZM480 144C480 133.333 474.667 128 464 128H304C293.333 128 288 133.333 288 144C288 154.667 293.333 160 304 160H464C474.667 160 480 154.667 480 144ZM768 128V1152C768 1186.67 755.333 1216.67 730 1242C704.667 1267.33 674.667 1280 640 1280H128C93.3333 1280 63.3333 1267.33 38 1242C12.6667 1216.67 0 1186.67 0 1152V128C0 93.3333 12.6667 63.3333 38 38C63.3333 12.6667 93.3333 0 128 0H640C674.667 0 704.667 12.6667 730 38C755.333 63.3333 768 93.3333 768 128Z" fill="white"/>
</svg>
