<svg width="32" height="30" viewBox="0 0 32 30" fill="none" xmlns="http://www.w3.org/2000/svg">
<path d="M16 0C24.8375 0 32 6.65 32 14.8571C32 18.4 30.6625 21.6429 28.4375 24.1929C29.2188 27.7929 31.8312 31 31.8625 31.0357C32 31.2 32.0375 31.4429 31.9563 31.6571C31.875 31.8714 31.7 32 31.5 32C27.3562 32 24.25 29.7286 22.7125 28.3286C20.6687 29.2071 18.4 29.7143 16 29.7143C7.1625 29.7143 0 23.0643 0 14.8571C0 6.65 7.1625 0 16 0ZM24 17.1429C25.1063 17.1429 26 16.1214 26 14.8571C26 13.5929 25.1063 12.5714 24 12.5714C22.8937 12.5714 22 13.5929 22 14.8571C22 16.1214 22.8937 17.1429 24 17.1429ZM16 17.1429C17.1063 17.1429 18 16.1214 18 14.8571C18 13.5929 17.1063 12.5714 16 12.5714C14.8937 12.5714 14 13.5929 14 14.8571C14 16.1214 14.8937 17.1429 16 17.1429ZM8 17.1429C9.10625 17.1429 10 16.1214 10 14.8571C10 13.5929 9.10625 12.5714 8 12.5714C6.89375 12.5714 6 13.5929 6 14.8571C6 16.1214 6.89375 17.1429 8 17.1429Z" fill="#777777"/>
</svg>
