<svg width="56" height="56" viewBox="0 0 56 56" fill="none" xmlns="http://www.w3.org/2000/svg">
<path d="M48.4477 29.1867C49.3664 27.9727 49.875 26.4852 49.875 24.9375C49.875 22.482 48.5023 20.1578 46.293 18.8617C45.7242 18.5281 45.0766 18.3525 44.4172 18.3531H31.3031L31.6313 11.632C31.7078 10.0078 31.1336 8.46564 30.018 7.28986C29.4705 6.71033 28.8099 6.24923 28.0772 5.93506C27.3445 5.62089 26.5551 5.46033 25.7578 5.4633C22.9141 5.4633 20.3984 7.37736 19.6438 10.1172L14.9461 27.125H14.9297V50.5313H40.7586C41.2617 50.5313 41.7539 50.4328 42.2078 50.236C44.8109 49.1258 46.4898 46.5828 46.4898 43.761C46.4898 43.0719 46.3914 42.3938 46.1945 41.7375C47.1133 40.5235 47.6219 39.036 47.6219 37.4883C47.6219 36.7992 47.5234 36.1211 47.3266 35.4649C48.2453 34.2508 48.7539 32.7633 48.7539 31.2156C48.743 30.5266 48.6445 29.843 48.4477 29.1867V29.1867ZM6.125 28.875V48.7813C6.125 49.7492 6.90703 50.5313 7.875 50.5313H11.4297V27.125H7.875C6.90703 27.125 6.125 27.907 6.125 28.875Z" fill="#777777"/>
</svg>
