<svg width="130" height="130" viewBox="0 0 130 130" fill="none" xmlns="http://www.w3.org/2000/svg">
<path d="M34.7623 130L78.1652 86.5947L65.0254 73.4576L73.4576 65.0254L86.5947 78.165L130 34.7623L95.2377 0L51.835 43.4053L64.9746 56.5424L56.5424 64.9746L43.4053 51.835L0 95.2377L34.7623 130ZM34.7623 113.033L16.968 95.2388L43.4047 68.8021L48.0601 73.4576L39.5499 81.9677L48.0335 90.4513L56.5438 81.9411L61.1992 86.5966L34.7623 113.033V113.033ZM86.5972 61.1979L81.9417 56.5424L90.4521 48.0323L81.9684 39.5487L73.4581 48.0589L68.8015 43.4023L95.2382 16.9631L113.034 34.7583L86.5955 61.1952L86.5972 61.1979V61.1979Z" fill="white"/>
</svg>
