<svg width="48" height="48" viewBox="0 0 48 48" fill="none" xmlns="http://www.w3.org/2000/svg">
<path d="M36 24C36 17.3726 30.6274 12 24 12C17.3726 12 12 17.3726 12 24V32C12 38.6274 17.3726 44 24 44C30.6274 44 36 38.6274 36 32V24Z" stroke="white" stroke-width="4"/>
<path d="M12 24C12 17.373 17.373 12 24 12C30.627 12 36 17.373 36 24V25H12V24Z" stroke="white" stroke-width="4"/>
<path d="M24 25V12C24 8 25.5 4 31 4C37 4 39 9 39 13" stroke="white" stroke-width="4" stroke-linecap="round" stroke-linejoin="round"/>
</svg>
